<svg xmlns="http://www.w3.org/2000/svg" width="20" height="20" viewBox="0 0 20 20">
    <g fill="none" fill-rule="evenodd">
        <g fill="#FFF">
            <g>
                <path d="M18.007 1c.548 0 .993.445.993.993v16.013c0 .55-.445.994-.993.994h-4.814v-6.842h2.358l.354-2.667h-2.712V7.79c0-.772.22-1.298 1.357-1.298H16V4.104C15.75 4.073 14.888 4 13.887 4c-2.09 0-3.522 1.243-3.522 3.525V9.49H8v2.667h2.365V19H1.993C1.445 19 1 18.555 1 18.006V1.993C1 1.445 1.445 1 1.993 1z" transform="translate(-195 -146) translate(195 146)"/>
            </g>
        </g>
    </g>
</svg>
