<svg xmlns="http://www.w3.org/2000/svg" width="20" height="20" viewBox="0 0 20 20">
    <path fill="#707070" fill-rule="evenodd" d="M13.75 11.95c2.453 0 4.45 1.996 4.45 4.45v1.824c0 .442-.358.8-.8.8-.442 0-.8-.358-.8-.8V16.4c0-1.572-1.28-2.85-2.85-2.85h-7.3c-1.572 0-2.85 1.278-2.85 2.85v1.824c0 .442-.359.8-.8.8-.442 0-.8-.358-.8-.8V16.4c0-2.454 1.997-4.45 4.45-4.45zM10.1 1c2.454 0 4.45 1.996 4.45 4.45S12.554 9.9 10.1 9.9 5.65 7.904 5.65 5.45 7.646 1 10.1 1zm0 1.6c-1.571 0-2.85 1.279-2.85 2.85 0 1.57 1.279 2.85 2.85 2.85 1.57 0 2.85-1.28 2.85-2.85 0-1.571-1.28-2.85-2.85-2.85z"/>
</svg>
