<svg xmlns="http://www.w3.org/2000/svg" width="20" height="20" viewBox="0 0 20 20">
    <path fill="#707070" fill-rule="evenodd" d="M6.394 3.46H4.185c-.209 0-.408.088-.549.241-.137.15-.206.351-.187.553.225 2.117.963 4.194 2.131 5.993 1.063 1.667 2.504 3.103 4.17 4.159 1.803 1.166 3.879 1.902 6.009 2.133.195.017.404-.052.557-.193.152-.14.238-.335.237-.538v-2.21c.01-.37-.264-.688-.635-.74-.748-.099-1.493-.284-2.207-.55-.274-.1-.582-.036-.789.166l-.926.924c-.228.229-.58.279-.862.117-1.945-1.102-3.557-2.71-4.664-4.65-.163-.287-.114-.65.119-.883l.93-.927c.195-.197.26-.498.16-.761-.267-.715-.453-1.458-.552-2.213-.05-.353-.365-.622-.733-.622M15.812 18c-.065 0-.13-.004-.195-.01-2.365-.255-4.657-1.068-6.642-2.351-1.838-1.166-3.434-2.756-4.608-4.598C3.077 9.056 2.26 6.756 2.009 4.4c-.057-.624.15-1.235.564-1.689.414-.45 1-.71 1.611-.71h2.218c1.076 0 2.005.805 2.157 1.882.086.65.245 1.286.473 1.896.301.798.108 1.706-.493 2.313l-.526.523c.862 1.348 2.01 2.492 3.364 3.35l.532-.53c.607-.599 1.51-.791 2.304-.494.612.228 1.25.386 1.898.471 1.104.155 1.911 1.106 1.889 2.214v2.18c.002.613-.257 1.205-.712 1.621-.404.37-.933.574-1.476.574"/>
</svg>
