<svg xmlns="http://www.w3.org/2000/svg" width="20" height="20" viewBox="0 0 20 20">
    <path fill="#707070" fill-rule="evenodd" d="M16.2 3c1.323 0 2.4 1.088 2.4 2.425v9.75c0 1.337-1.077 2.425-2.4 2.425H3.4c-1.323 0-2.4-1.088-2.4-2.425v-9.75C1 4.088 2.077 3 3.4 3h12.8zm.8 3.974l-6.737 4.79c-.138.1-.3.148-.463.148-.163 0-.325-.049-.463-.148L2.6 6.976v8.199c0 .455.36.825.8.825h12.8c.441 0 .8-.37.8-.825V6.974zM16.2 4.6H3.4c-.317 0-.592.191-.721.468L9.8 10.131l7.122-5.063c-.13-.277-.404-.468-.722-.468z"/>
</svg>
