<svg xmlns="http://www.w3.org/2000/svg" width="80" height="27" viewBox="0 0 80 27">
    <g fill="none" fill-rule="evenodd">
        <g fill="#FFF">
            <g>
                <path d="M0 21.92L6 21.92 6 19.92 0 19.92zM0 1.92L0 12.92 6 12.92 6 10.5 2.341 10.5 2.341 1.92zM16.363 6.92c0-2.06-1.484-3.429-3.363-3.429-1.88 0-3.363 1.369-3.363 3.43 0 2.06 1.484 3.428 3.363 3.428 1.88 0 3.363-1.369 3.363-3.429M7 6.92c0-3.396 2.687-6 6-6s6 2.604 6 6-2.687 6-6 6-6-2.604-6-6M33 7.25c0 3.527-2.473 5.67-5.726 5.67-3.652 0-6.274-2.67-6.274-5.983C21 3.59 23.672.92 27.091.92c2.224 0 4.1 1.088 5.08 2.637l-2.258 1.286c-.481-.758-1.527-1.351-2.838-1.351-1.959 0-3.42 1.434-3.42 3.461 0 1.961 1.395 3.396 3.652 3.396 1.544 0 2.556-.676 2.971-1.78h-3.104V6.26H33v.989zM35 12.92L37 12.92 37 1.92 35 1.92zM40 6.92c0-3.396 2.304-6 5.482-6 1.913 0 3.6 1.039 4.518 2.67L47.922 4.91c-.467-.89-1.37-1.418-2.44-1.418-1.867 0-3.072 1.369-3.072 3.43 0 2.06 1.205 3.428 3.072 3.428 1.07 0 1.988-.528 2.44-1.418L50 10.25c-.904 1.632-2.59 2.67-4.518 2.67-3.178 0-5.482-2.604-5.482-6M8 26.92L10 26.92 10 15.92 8 15.92zM24 26.92L21.486 26.92 21.486 20.524 18.641 25.192 18.359 25.192 15.514 20.524 15.514 26.92 13 26.92 13 15.92 15.514 15.92 18.5 20.807 21.486 15.92 24 15.92zM37 26.92L34.486 26.92 34.486 20.524 31.641 25.192 31.359 25.192 28.514 20.524 28.514 26.92 26 26.92 26 15.92 28.514 15.92 31.5 20.807 34.486 15.92 37 15.92zM49.363 20.92c0-2.06-1.484-3.429-3.363-3.429-1.88 0-3.363 1.369-3.363 3.429 0 2.06 1.484 3.429 3.363 3.429 1.88 0 3.363-1.368 3.363-3.429m-9.363 0c0-3.396 2.687-6 6-6s6 2.604 6 6-2.687 6-6 6-6-2.604-6-6" transform="translate(-230 -90) translate(230 90)"/>
                <path fill-rule="nonzero" d="M59.547 16.783v-3.726l2.611 3.726h1.16V9.92h-1.547v3.726l-2.61-3.726H58v6.863h1.547zm9.187 0v-1.51h-2.708v-1.216h2.418v-1.49h-2.418V11.43h2.66V9.92h-4.207v6.863h4.255zm3.433.137c1.49 0 2.611-.882 2.611-2.353V9.92h-1.547v4.51c0 .52-.242.96-1.064.96-.822 0-1.064-.44-1.064-.96V9.92h-1.547v4.647c0 1.47 1.122 2.353 2.611 2.353zm5.27-.137v-2.52h2.515v-1.51h-2.515V11.43H80V9.92h-4.11v6.863h1.547z" transform="translate(-230 -90) translate(230 90)"/>
            </g>
        </g>
    </g>
</svg>
