<?xml version="1.0" encoding="utf-8"?>
<!-- Generator: Adobe Illustrator 24.0.3, SVG Export Plug-In . SVG Version: 6.00 Build 0)  -->
<svg version="1.1" id="Calque_1" xmlns="http://www.w3.org/2000/svg" xmlns:xlink="http://www.w3.org/1999/xlink" x="0px" y="0px"
	 viewBox="0 0 600 309" style="enable-background:new 0 0 600 309;" xml:space="preserve">
<style type="text/css">
	.st0{fill:#008BE3;}
</style>
<g>
	<path class="st0" d="M74.5,227.4v23.9H6v-23.9H74.5z"/>
	<g>
		<path d="M82.1,109.7v28.5H6.3V8.8h29.6v100.9H82.1z"/>
		<path d="M92.6,73.5c0-38.1,30.1-67.3,67.3-67.3s67.3,29.2,67.3,67.3c0,38.1-30.1,67.3-67.3,67.3S92.6,111.5,92.6,73.5z
			 M197.6,73.5c0-23.1-16.6-38.4-37.7-38.4s-37.7,15.3-37.7,38.4s16.6,38.4,37.7,38.4S197.6,96.6,197.6,73.5z"/>
		<path d="M378.5,77.2c0,39.6-27.5,63.6-63.8,63.6c-40.7,0-69.9-29.9-69.9-67.1c0-37.5,29.8-67.5,67.8-67.5
			c24.8,0,45.7,12.2,56.6,29.6l-25.1,14.4c-5.4-8.5-17-15.2-31.6-15.2c-21.8,0-38.1,16.1-38.1,38.8c0,22,15.5,38.1,40.7,38.1
			c17.2,0,28.5-7.6,33.1-20h-34.6V66.1h64.9V77.2z"/>
		<path d="M435.3,8.8v129.4h-29.6V8.8H435.3z"/>
		<path d="M462.4,73.5c0-38.1,28.3-67.3,67.3-67.3c23.5,0,44.2,11.6,55.4,29.9l-25.5,14.8c-5.7-10-16.8-15.9-29.9-15.9
			C506.8,35,492,50.4,492,73.5s14.8,38.4,37.7,38.4c13.1,0,24.4-5.9,29.9-15.9l25.5,14.8c-11.1,18.3-31.8,29.9-55.4,29.9
			C490.7,140.7,462.4,111.5,462.4,73.5z"/>
	</g>
	<g>
		<path d="M124.7,171.4v129.4H95.1V171.4H124.7z"/>
		<path d="M281.3,300.8h-29.6v-75.2l-33.5,54.9h-3.3l-33.5-54.9v75.2h-29.6V171.4h29.6l35.1,57.5l35.1-57.5h29.6V300.8z"/>
		<path d="M437.8,300.8h-29.6v-75.2l-33.5,54.9h-3.3L338,225.6v75.2h-29.6V171.4H338l35.1,57.5l35.1-57.5h29.6V300.8z"/>
		<path d="M459.4,236.1c0-38.1,30.1-67.3,67.3-67.3c37.2,0,67.3,29.2,67.3,67.3c0,38.1-30.1,67.3-67.3,67.3
			C489.6,303.4,459.4,274.2,459.4,236.1z M564.4,236.1c0-23.1-16.6-38.4-37.7-38.4c-21.1,0-37.7,15.3-37.7,38.4
			c0,23.1,16.6,38.4,37.7,38.4C547.8,274.6,564.4,259.2,564.4,236.1z"/>
	</g>
</g>
</svg>
