<svg xmlns="http://www.w3.org/2000/svg" xmlns:xlink="http://www.w3.org/1999/xlink" width="48" height="30" viewBox="0 0 48 30">
    <defs>
        <path id="pw0ptg3yca" d="M0.009 0.094L20.547 0.094 20.547 19.954 0.009 19.954z"/>
        <path id="55qu9q5tjc" d="M0.022 0.064L3.81 0.064 3.81 6.429 0.022 6.429z"/>
        <path id="zgj5q969xe" d="M0 29.167L47.98 29.167 47.98 0.094 0 0.094z"/>
    </defs>
    <g fill="none" fill-rule="evenodd">
        <g>
            <g>
                <path fill="#FFF" d="M16 18.601L5.436 18.601 5.436 2 4 2 4 20 16 20z" transform="translate(-601 -88) translate(601 88)"/>
                <path fill="#FFF" d="M24 5L22.596 5 22.596 14.506 14.404 14.506 14.404 5 13 5 13 16 24 16z" transform="translate(-601 -88) translate(601 88)"/>
                <g transform="translate(-601 -88) translate(601 88)">
                    <g transform="translate(23.406)">
                        <mask id="bf8r6p7j9b" fill="#fff">
                            <use xlink:href="#pw0ptg3yca"/>
                        </mask>
                        <path fill="#FFF" d="M19.379 1.523h1.167V.096L19.38.094c-4.152 0-7.708 2.599-9.14 6.257C8.762 2.794 5.256.286 1.177.286H.009v1.429h1.167c4.625 0 8.389 3.77 8.389 8.405s-3.764 8.406-8.39 8.406H.01v1.428h1.167c4.152 0 7.708-2.598 9.14-6.257 1.478 3.558 4.983 6.065 9.063 6.065l1.167.002v-1.429l-1.167-.001c-4.625 0-8.389-3.77-8.389-8.406 0-4.635 3.764-8.405 8.389-8.405" mask="url(#bf8r6p7j9b)"/>
                    </g>
                    <path fill="#FFF" d="M2.942 24.65c0 .662-.512 1.09-1.304 1.09H.899v-2.104c.132-.03.375-.059.711-.059.608.007 1.332.198 1.332 1.073m.646 2.691c-.144-.633-.412-1.034-.816-1.22.672-.27 1.069-.847 1.069-1.561 0-.488-.176-.912-.495-1.194-.389-.353-.94-.51-1.789-.51-.557 0-1.121.047-1.51.127l-.047.01v6.084h.899v-2.624h.674c.679.025.981.321 1.155 1.13.196.868.318 1.305.41 1.464l.017.03h.941l-.047-.088c-.125-.231-.276-.856-.46-1.648M6.621 26.237L8.97 26.237 8.97 25.471 6.621 25.471 6.621 23.676 9.105 23.676 9.105 22.901 5.721 22.901 5.721 29.077 9.239 29.077 9.239 28.302 6.621 28.302z"/>
                    <g transform="translate(10.693 22.738)">
                        <mask id="n7v9ysb5qd" fill="#fff">
                            <use xlink:href="#55qu9q5tjc"/>
                        </mask>
                        <path fill="#FFF" d="M2.23 2.791c-.881-.342-1.164-.612-1.164-1.113 0-.422.334-.848 1.08-.848.501 0 .885.153 1.119.28l.062.034.254-.751-.043-.025c-.2-.114-.644-.304-1.365-.304C.986.064.158.764.158 1.768c0 .813.52 1.376 1.634 1.772.803.31 1.101.62 1.101 1.148 0 .601-.461.975-1.205.975-.464 0-.975-.145-1.368-.387l-.065-.04-.233.772.037.024c.344.23 1.006.397 1.575.397 1.606 0 2.176-.972 2.176-1.803 0-.87-.458-1.401-1.58-1.835" mask="url(#n7v9ysb5qd)"/>
                    </g>
                    <mask id="mp6o3hkqqf" fill="#fff">
                        <use xlink:href="#zgj5q969xe"/>
                    </mask>
                    <path fill="#FFF" d="M16.348 29.077L17.247 29.077 17.247 22.901 16.348 22.901zM21.017 28.383c-.214 0-.514-.004-.73-.036v-4.682c.173-.034.45-.07.856-.07.793 0 1.402.21 1.812.623.387.39.581.947.577 1.654 0 1.62-.893 2.51-2.515 2.51m2.579-4.755c-.555-.519-1.37-.771-2.489-.771-.552 0-1.113.043-1.668.127l-.05.007v6.062l.052.006c.421.048.9.073 1.424.073 1.195 0 2.134-.308 2.714-.89.58-.572.888-1.4.888-2.396 0-.941-.293-1.687-.871-2.218M27.157 26.237L29.507 26.237 29.507 25.471 27.157 25.471 27.157 23.676 29.641 23.676 29.641 22.901 26.258 22.901 26.258 29.077 29.776 29.077 29.776 28.302 27.157 28.302zM35.37 25.495c0 .793.012 1.487.067 2.226-.27-.554-.589-1.122-.971-1.728l-1.955-3.092h-.944v6.176h.854v-2.648c0-.914-.015-1.593-.05-2.275.255.522.588 1.108 1.034 1.821l1.937 3.102h.881V22.9h-.854v2.594zM41.249 23.577c.444 0 .868.087 1.194.246l.063.03.222-.752-.044-.022c-.124-.065-.595-.277-1.462-.277-1.924 0-3.216 1.302-3.216 3.24 0 1.898 1.195 3.125 3.046 3.125.764 0 1.339-.152 1.622-.294l.043-.022-.191-.737-.065.032c-.312.151-.79.245-1.248.245-1.417 0-2.264-.888-2.264-2.375 0-1.504.881-2.439 2.3-2.439M45.361 28.302L45.361 26.237 47.711 26.237 47.711 25.471 45.361 25.471 45.361 23.676 47.846 23.676 47.846 22.901 44.463 22.901 44.463 29.077 47.98 29.077 47.98 28.302z" mask="url(#mp6o3hkqqf)"/>
                </g>
            </g>
        </g>
    </g>
</svg>
