<svg xmlns="http://www.w3.org/2000/svg" width="102" height="26" viewBox="0 0 102 26">
    <defs>
        <filter id="3t9hvq28ra">
            <feColorMatrix in="SourceGraphic" values="0 0 0 0 1.000000 0 0 0 0 0.991997 0 0 0 0 0.991997 0 0 0 1.000000 0"/>
        </filter>
        <filter id="r8jrk5rdjb">
            <feColorMatrix in="SourceGraphic" values="0 0 0 0 1.000000 0 0 0 0 1.000000 0 0 0 0 1.000000 0 0 0 1.000000 0"/>
        </filter>
        <filter id="6k8zbmw2oc">
            <feColorMatrix in="SourceGraphic" values="0 0 0 0 1.000000 0 0 0 0 1.000000 0 0 0 0 1.000000 0 0 0 1.000000 0"/>
        </filter>
    </defs>
    <g fill="none" fill-rule="evenodd">
        <g>
            <g>
                <g filter="url(#3t9hvq28ra)" transform="translate(-338 -91) translate(338 91)">
                    <path fill="#1D1D1B" fill-rule="nonzero" d="M6.375 9.091L6.375 11.582 0 11.582 0 .273 2.487.273 2.487 9.091zM14.467 9.8H10.42l-.543 1.782H7.163L10.86.272h3.17l3.695 11.292H15.01L14.467 9.8zm-.736-2.418l-1.278-4.146-1.279 4.146h2.557zM22.733 5.927c0-3.327 2.382-5.872 5.657-5.872 1.98 0 3.713 1.018 4.66 2.618l-2.138 1.29c-.49-.872-1.418-1.381-2.522-1.381-1.926 0-3.17 1.345-3.17 3.363 0 2.019 1.244 3.364 3.17 3.364 1.104 0 2.05-.509 2.522-1.382l2.137 1.291c-.928 1.6-2.68 2.618-4.659 2.618-3.275-.036-5.657-2.581-5.657-5.909zM33.925 5.927c0-3.327 2.54-5.872 5.657-5.872s5.657 2.545 5.657 5.872c0 3.328-2.522 5.873-5.657 5.873-3.135 0-5.657-2.545-5.657-5.873zm8.827 0c0-2.018-1.401-3.363-3.17-3.363s-3.17 1.345-3.17 3.363 1.401 3.364 3.17 3.364c1.769-.018 3.17-1.346 3.17-3.364zM53.646 2.764L50.844 2.764 50.844 11.564 48.356 11.564 48.356 2.764 45.554 2.764 45.554.273 53.628.273 53.628 2.764zM61.912 9.091L61.912 11.582 55.082 11.582 55.082.273 61.825.273 61.825 2.764 57.551 2.764 57.551 4.636 61.44 4.636 61.44 7.091 57.551 7.091 57.551 9.091z"/>
                </g>
                <g fill="#FFF" fill-rule="nonzero">
                    <path d="M2.618.364L2.618 11.655.123 11.655.123.364zM15.728 11.655L13.233 11.655 13.233 5.091 10.403 9.891 10.122 9.891 7.31 5.091 7.31 11.655 4.815 11.655 4.815.364 7.31.364 10.28 5.382 13.25.364 15.746.364 15.746 11.655zM28.838 11.655L26.342 11.655 26.342 5.091 23.513 9.891 23.232 9.891 20.42 5.091 20.42 11.655 17.925 11.655 17.925.364 20.42.364 23.39 5.382 26.36.364 28.855.364 28.855 11.655zM30.577 6c0-3.327 2.549-5.873 5.677-5.873C39.382.127 41.93 2.673 41.93 6c0 3.327-2.548 5.873-5.676 5.873S30.577 9.327 30.577 6zm8.857 0c0-2.018-1.406-3.364-3.18-3.364-1.775 0-3.181 1.346-3.181 3.364s1.406 3.364 3.18 3.364c1.775 0 3.181-1.346 3.181-3.364z" transform="translate(-338 -91) translate(338 91) translate(21 14)"/>
                </g>
                <path fill="#FFF" fill-rule="nonzero" d="M70.5 1L70.5 26 69.5 26 69.5 1z" transform="translate(-338 -91) translate(338 91)"/>
                <g filter="url(#r8jrk5rdjb)" transform="translate(-338 -91) translate(338 91)">
                    <g>
                        <path fill="#009EE2" fill-rule="nonzero" d="M2.656 1.51c0 .747-.544 1.337-1.264 1.337H.848V4.08H.032V.156h1.36c.72 0 1.264.608 1.264 1.354zm-.816 0c0-.277-.192-.503-.432-.503H.864v1.007h.544c.24 0 .432-.226.432-.504zM5.648 1.285V4.08H4.88v-.26c-.176.208-.416.347-.768.347-.672 0-1.232-.643-1.232-1.476s.56-1.476 1.232-1.476c.352 0 .592.122.768.347v-.26h.768v-.017zm-.784 1.389c0-.417-.256-.677-.608-.677s-.608.26-.608.677c0 .416.256.677.608.677s.608-.26.608-.677zM7.856 1.233v.954c-.32-.052-.768.087-.768.643v1.267H6.32V1.285h.768v.503c.096-.382.448-.555.768-.555z" transform="translate(74 3)"/>
                    </g>
                </g>
                <g filter="url(#6k8zbmw2oc)" transform="translate(-338 -91) translate(338 91)">
                    <g fill-rule="nonzero">
                        <path fill="#009EE2" d="M3.203 9.965L3.203 11.031 0.157 11.031 0.157 9.965z" transform="translate(74 10)"/>
                        <g fill="#1D1D1B">
                            <path d="M3.377 4.703L3.377 5.979 0 5.979 0 .192 1.323.192 1.323 4.703 3.377 4.703zM3.847 3.077C3.847 1.38 5.187.07 6.841.07c1.654 0 2.994 1.311 2.994 3.007 0 1.696-1.34 3.007-2.994 3.007-1.653 0-2.994-1.294-2.994-3.007zm4.665 0c0-1.032-.748-1.713-1.67-1.713-.923 0-1.672.681-1.672 1.713 0 1.031.749 1.713 1.671 1.713.923 0 1.671-.682 1.671-1.713zM16.572 3.252c0 1.765-1.218 2.85-2.837 2.85-1.81 0-3.116-1.347-3.116-3.008 0-1.678 1.323-3.024 3.011-3.024 1.097 0 2.037.542 2.525 1.329l-1.115.646c-.243-.384-.748-.681-1.41-.681-.974 0-1.688.716-1.688 1.73 0 .98.696 1.696 1.81 1.696.766 0 1.271-.332 1.48-.891H13.7V2.745h2.89v.507h-.018zM19.096.192L19.096 5.979 17.773 5.979 17.773.192zM20.315 3.077c0-1.696 1.253-3.007 2.994-3.007 1.045 0 1.967.524 2.472 1.346l-1.131.664c-.262-.454-.749-.716-1.34-.716-1.028 0-1.672.681-1.672 1.713 0 1.031.662 1.713 1.671 1.713.592 0 1.08-.262 1.34-.717l1.132.665c-.487.821-1.41 1.346-2.472 1.346-1.74 0-2.994-1.294-2.994-3.007z" transform="translate(74 10) translate(.174)"/>
                        </g>
                        <g fill="#1D1D1B">
                            <path d="M1.445.122L1.445 5.909.122 5.909.122.122 1.445.122zM8.408 5.909L7.085 5.909 7.085 2.552 5.588 5 5.431 5 3.934 2.552 3.934 5.909 2.611 5.909 2.611.122 3.934.122 5.501 2.692 7.068.122 8.391.122 8.391 5.909zM15.389 5.909L14.066 5.909 14.066 2.552 12.569 5 12.412 5 10.915 2.552 10.915 5.909 9.592 5.909 9.592.122 10.915.122 12.481 2.692 14.048.122 15.371.122 15.371 5.909zM16.346 3.024c0-1.695 1.34-3.007 2.994-3.007 1.654 0 2.994 1.312 2.994 3.007 0 1.696-1.34 3.007-2.994 3.007-1.654 0-2.994-1.31-2.994-3.007zm4.683 0c0-1.031-.749-1.713-1.671-1.713-.94 0-1.672.682-1.672 1.713 0 1.032.749 1.714 1.672 1.714.922 0 1.67-.682 1.67-1.714z" transform="translate(74 10) translate(4.004 7.343)"/>
                        </g>
                    </g>
                </g>
            </g>
        </g>
    </g>
</svg>
