<svg width="18" height="10" viewBox="0 0 18 10" fill="none" xmlns="http://www.w3.org/2000/svg">
<path fill-rule="evenodd" clip-rule="evenodd" d="M4.03485 9.67769C4.21767 9.87983 4.48398 9.99735 4.76525 10C5.00324 9.99714 5.23189 9.91197 5.408 9.76057C5.81089 9.42466 5.8501 8.84372 5.49564 8.4621L3.16592 5.9434L17.0261 6.03094C17.564 6.03094 18 5.61864 18 5.11004C18 4.60145 17.564 4.18915 17.0261 4.18915L3.18108 4.10171L5.64172 1.56459C6.00477 1.17297 5.96335 0.5772 5.5492 0.233897C5.13506 -0.109406 4.50502 -0.0702372 4.14198 0.321382L0.246539 4.39174C-0.0821797 4.74084 -0.0821797 5.26744 0.246539 5.61653L4.03485 9.67769Z" fill="#008DCF"/>
</svg>
