<svg xmlns="http://www.w3.org/2000/svg" width="21" height="20" viewBox="0 0 21 20">
    <path fill="#FFF" fill-rule="evenodd" d="M6.975 3.46H4.766c-.209 0-.409.088-.549.241-.137.15-.206.351-.187.553.225 2.117.963 4.194 2.13 5.993 1.064 1.667 2.505 3.103 4.17 4.159 1.804 1.166 3.88 1.902 6.01 2.133.195.017.404-.052.557-.193.152-.14.238-.335.237-.538v-2.21c.01-.37-.264-.688-.635-.74-.748-.099-1.493-.284-2.207-.55-.274-.1-.582-.036-.79.166l-.925.924c-.229.229-.58.279-.862.117-1.946-1.102-3.557-2.71-4.664-4.65-.163-.287-.115-.65.119-.883l.929-.927c.196-.197.261-.498.162-.761-.268-.715-.454-1.458-.553-2.213-.05-.353-.365-.622-.733-.622M16.393 18c-.065 0-.13-.004-.195-.01-2.365-.255-4.657-1.068-6.642-2.351-1.839-1.166-3.434-2.756-4.608-4.598C3.658 9.056 2.842 6.756 2.59 4.4c-.057-.624.15-1.235.564-1.689.413-.45 1-.71 1.611-.71h2.218c1.076 0 2.005.805 2.157 1.882.086.65.245 1.286.473 1.896.301.798.108 1.706-.493 2.313l-.527.523c.863 1.348 2.012 2.492 3.365 3.35l.532-.53c.607-.599 1.51-.791 2.304-.494.612.228 1.25.386 1.898.471 1.104.155 1.911 1.106 1.888 2.214v2.18c.003.613-.256 1.205-.711 1.621-.404.37-.933.574-1.476.574"/>
</svg>
