<svg xmlns="http://www.w3.org/2000/svg" width="21" height="20" viewBox="0 0 21 20">
    <path fill="#FFF" fill-rule="evenodd" d="M10.51 1c4.275 0 7.754 3.479 7.754 7.755 0 5.77-7.012 10.512-7.311 10.71-.133.09-.29.135-.443.135-.154 0-.31-.044-.443-.134-.3-.2-7.311-4.94-7.311-10.711C2.756 4.479 6.235 1 10.51 1zm0 1.6c-3.394 0-6.154 2.76-6.154 6.155 0 4.155 4.673 7.96 6.154 9.06 1.48-1.1 6.154-4.905 6.154-9.06 0-3.394-2.76-6.155-6.154-6.155zm0 3.036c1.72 0 3.118 1.399 3.118 3.119 0 1.719-1.398 3.118-3.118 3.118s-3.118-1.4-3.118-3.118c0-1.72 1.398-3.12 3.118-3.12zm0 1.6c-.837 0-1.52.68-1.52 1.519 0 .837.683 1.518 1.52 1.518s1.519-.681 1.519-1.518c0-.838-.682-1.52-1.52-1.52z"/>
</svg>
