<svg xmlns="http://www.w3.org/2000/svg" width="20" height="20" viewBox="0 0 20 20">
    <g fill="none" fill-rule="evenodd">
        <g fill="#FFF">
            <g>
                <path d="M17.67 1c.735 0 1.33.577 1.33 1.29v15.42c0 .712-.595 1.29-1.33 1.29H2.33C1.596 19 1 18.422 1 17.71V2.29C1 1.577 1.595 1 2.33 1zm-4.979 3.16c-1.585 0-2.872 1.358-2.872 3.03 0 .238.025.47.075.69-2.388-.126-4.504-1.333-5.92-3.167-.246.448-.389.968-.389 1.523 0 1.051.508 1.98 1.279 2.521-.47-.015-.913-.152-1.301-.379v.038c0 1.467.99 2.693 2.304 2.97-.24.069-.495.106-.757.106-.185 0-.365-.02-.54-.055.365 1.203 1.426 2.08 2.682 2.105-.984.813-2.221 1.298-3.568 1.298-.232 0-.46-.016-.685-.042 1.27.86 2.78 1.362 4.403 1.362 5.283 0 8.172-4.617 8.172-8.621 0-.133-.002-.263-.008-.393.561-.427 1.048-.96 1.433-1.569-.514.245-1.068.408-1.649.48.594-.374 1.049-.97 1.262-1.677-.556.349-1.17.6-1.824.736-.524-.588-1.27-.956-2.097-.956z" transform="translate(-230 -146) translate(230 146)"/>
            </g>
        </g>
    </g>
</svg>
