<svg xmlns="http://www.w3.org/2000/svg" width="21" height="20" viewBox="0 0 21 20">
    <path fill="#FFF" fill-rule="evenodd" d="M11.383 11.667c2.045 0 3.71 1.655 3.71 3.689V16.8c0 .442-.36.8-.8.8-.442 0-.8-.358-.8-.8v-1.444c0-1.152-.947-2.09-2.11-2.09H5.564c-1.163 0-2.109.938-2.109 2.09V16.8c0 .442-.358.8-.8.8-.44 0-.8-.358-.8-.8v-1.444c0-2.034 1.665-3.69 3.71-3.69h5.818zm5.29.119c1.636.42 2.781 1.888 2.782 3.569V16.8c0 .442-.359.8-.8.8-.44 0-.8-.358-.8-.8v-1.444c0-.951-.65-1.782-1.58-2.02-.429-.11-.686-.546-.577-.974.11-.43.545-.683.975-.576zM8.473 3c2.046 0 3.71 1.655 3.71 3.689s-1.664 3.689-3.71 3.689c-2.044 0-3.708-1.655-3.708-3.69C4.765 4.656 6.429 3 8.474 3zm5.289.118c1.643.419 2.79 1.888 2.79 3.574 0 1.687-1.147 3.157-2.79 3.574-.066.017-.133.025-.198.025-.356 0-.683-.241-.774-.603-.11-.428.15-.864.578-.973.933-.237 1.585-1.069 1.585-2.023 0-.954-.653-1.786-1.585-2.023-.43-.109-.687-.545-.578-.973.108-.428.544-.685.972-.578zM8.474 4.6c-1.163 0-2.11.937-2.11 2.089s.947 2.089 2.11 2.089c1.163 0 2.109-.937 2.109-2.09 0-1.151-.946-2.088-2.11-2.088z"/>
</svg>
